<svg aria-hidden="true" style="position: absolute; width: 0; height: 0; overflow: hidden;" version="1.1" xmlns="http://www.w3.org/2000/svg" xmlns:xlink="http://www.w3.org/1999/xlink">
<defs>
<symbol id="icon-burger-menu_32x32">
<path d="M32 9c0 0.552-0.448 1-1 1h-30c-0.552 0-1-0.448-1-1s0.448-1 1-1h30c0.552 0 1 0.448 1 1zM32 25c0 0.552-0.448 1-1 1h-30c-0.552 0-1-0.448-1-1s0.448-1 1-1h30c0.552 0 1 0.448 1 1zM32 16.992c0 0.548-0.444 0.992-0.992 0.992h-30.016c-0.548 0-0.992-0.444-0.992-0.992s0.444-0.992 0.992-0.992h30.016c0.548 0 0.992 0.444 0.992 0.992z"></path>
</symbol>
<symbol id="icon-ic_round-call">
<path d="M25.64 20.347l-3.387-0.387c-0.398-0.047-0.802-0.003-1.181 0.129s-0.723 0.347-1.006 0.631l-2.453 2.453c-3.785-1.925-6.862-5.002-8.787-8.787l2.467-2.467c0.573-0.573 0.853-1.373 0.76-2.187l-0.387-3.36c-0.076-0.65-0.388-1.25-0.877-1.686s-1.121-0.675-1.776-0.674h-2.307c-1.507 0-2.76 1.253-2.667 2.76 0.707 11.387 9.813 20.48 21.187 21.187 1.506 0.093 2.76-1.16 2.76-2.666v-2.307c0.013-1.347-1-2.48-2.347-2.64z"></path>
</symbol>
<symbol id="icon-arrow-gallery_16x16">
<path d="M16 2c-0.265 0-0.52 0.105-0.707 0.293s-0.293 0.442-0.293 0.707v23.586l-6.292-6.294c-0.188-0.188-0.442-0.293-0.708-0.293s-0.52 0.105-0.708 0.293c-0.188 0.188-0.293 0.442-0.293 0.708s0.106 0.52 0.293 0.708l8 8c0.093 0.093 0.203 0.167 0.325 0.217s0.252 0.076 0.383 0.076c0.131 0 0.262-0.026 0.383-0.076s0.232-0.124 0.325-0.217l8-8c0.093-0.093 0.167-0.203 0.217-0.325s0.076-0.252 0.076-0.383c0-0.266-0.105-0.52-0.293-0.708s-0.442-0.293-0.708-0.293c-0.265 0-0.52 0.105-0.708 0.293l-6.292 6.294v-23.586c0-0.265-0.105-0.52-0.293-0.707s-0.442-0.293-0.707-0.293z"></path>
</symbol>
<symbol id="icon-bracket-right_11x10" viewBox="0 0 35 32">
<path fill="#fff" style="fill: var(--color1, #fff)" d="M9.219 29.197l14.758-13.196-14.758-13.196 2.28-2.042 16.997 15.246-16.997 15.23-2.28-2.042z"></path>
</symbol>
<symbol id="icon-paper-clip_22x20" viewBox="0 0 35 32">
<path fill="#cdcdcd" style="fill: var(--color2, #cdcdcd)" d="M6.3 31.999c-1.489 0-2.811-0.559-3.967-1.677-1.222-1.183-1.833-2.618-1.833-4.306s0.611-3.124 1.833-4.306l19.167-19.677c0.978-0.968 2.106-1.591 3.383-1.871s2.572-0.204 3.883 0.226c1.311 0.43 2.522 1.172 3.633 2.226 0.356 0.366 0.683 0.769 0.983 1.21s0.544 0.903 0.733 1.387c0.189 0.484 0.333 0.995 0.433 1.532s0.15 1.075 0.15 1.613c-0.044 2.28-0.844 4.183-2.4 5.71l-14.5 14.903c-0.2 0.215-0.444 0.328-0.733 0.339s-0.539-0.081-0.75-0.274c-0.211-0.194-0.322-0.436-0.333-0.726s0.083-0.543 0.283-0.758l14.5-14.903c1.178-1.161 1.778-2.602 1.8-4.323s-0.544-3.129-1.7-4.226c-0.711-0.71-1.5-1.247-2.367-1.613s-1.8-0.484-2.8-0.355-1.889 0.57-2.667 1.323l-19.167 19.677c-0.822 0.796-1.233 1.753-1.233 2.871s0.411 2.075 1.233 2.871c0.378 0.366 0.789 0.64 1.233 0.823s0.911 0.253 1.4 0.21c0.978-0.043 1.889-0.484 2.733-1.323l15.233-15.677c0.111-0.108 0.217-0.22 0.317-0.339s0.206-0.258 0.317-0.419c0.111-0.161 0.2-0.333 0.267-0.516s0.111-0.366 0.133-0.548c0.022-0.183-0.011-0.371-0.1-0.565s-0.222-0.376-0.4-0.548c-0.422-0.43-0.833-0.624-1.233-0.581-0.422 0.043-0.9 0.312-1.433 0.806l-11.467 11.806c-0.133 0.129-0.289 0.22-0.467 0.274s-0.361 0.059-0.55 0.016c-0.189-0.043-0.35-0.129-0.483-0.258-0.222-0.194-0.333-0.43-0.333-0.71s0.1-0.527 0.3-0.742l11.467-11.839c0.911-0.86 1.833-1.333 2.767-1.419 1.067-0.086 2.044 0.301 2.933 1.161 0.844 0.796 1.217 1.731 1.117 2.806s-0.639 2.086-1.617 3.032l-15.233 15.71c-1.244 1.204-2.633 1.849-4.167 1.936-0.044 0-0.094 0.005-0.15 0.016s-0.106 0.016-0.15 0.016z"></path>
</symbol>
<symbol id="icon-for-youtube_29x29" viewBox="0 0 32 32">
<path fill="#487996" style="fill: var(--color3, #487996)" d="M28.69 15.044c0.736 0.425 0.736 1.486 0 1.911l-24 13.856c-0.736 0.425-1.655-0.106-1.655-0.956v-27.713c0-0.849 0.92-1.38 1.655-0.956l24 13.856z"></path>
</symbol>
<symbol id="icon-close-btn_45x45" viewBox="0 0 32 32">
<path fill="#487996" style="fill: var(--color3, #487996)" d="M17.253 16l6.48-6.48c0.146-0.17 0.222-0.389 0.213-0.612s-0.101-0.436-0.26-0.594c-0.158-0.158-0.37-0.251-0.594-0.26s-0.442 0.068-0.612 0.213l-6.48 6.48-6.48-6.489c-0.17-0.146-0.389-0.222-0.612-0.213s-0.436 0.101-0.594 0.26c-0.158 0.158-0.251 0.371-0.26 0.594s0.068 0.442 0.213 0.612l6.48 6.489-6.489 6.48c-0.093 0.080-0.169 0.178-0.222 0.288s-0.083 0.23-0.088 0.353c-0.005 0.122 0.016 0.244 0.061 0.359s0.113 0.218 0.199 0.304 0.19 0.154 0.304 0.199c0.114 0.045 0.236 0.065 0.359 0.061s0.243-0.035 0.353-0.088c0.11-0.053 0.208-0.129 0.288-0.222l6.489-6.48 6.48 6.48c0.17 0.146 0.389 0.222 0.612 0.213s0.436-0.101 0.594-0.26c0.158-0.158 0.251-0.37 0.26-0.594s-0.067-0.442-0.213-0.612l-6.48-6.48z"></path>
</symbol>
<symbol id="icon-item-list-style_7x7" viewBox="0 0 32 32">
<path fill="#487996" style="fill: var(--color3, #487996)" d="M0 13.714c0-7.574 6.14-13.714 13.714-13.714h18.286v18.286c0 7.574-6.14 13.714-13.714 13.714h-18.286v-18.286z"></path>
</symbol>
<symbol id="icon-form-polygon_19x13" viewBox="0 0 32 32">
<path d="M17.63 24.734c-0.852 1.010-2.409 1.010-3.261 0l-12.96-15.359c-1.17-1.387-0.184-3.509 1.63-3.509h25.92c1.815 0 2.801 2.122 1.63 3.509l-12.96 15.359z"></path>
</symbol>
<symbol id="icon-phone_24x24" viewBox="0 0 32 32">
<path fill="#008cef" style="fill: var(--color4, #008cef)" d="M25.64 20.347l-3.387-0.387c-0.398-0.047-0.802-0.003-1.181 0.129s-0.723 0.347-1.006 0.631l-2.453 2.453c-3.785-1.925-6.862-5.002-8.787-8.787l2.467-2.467c0.573-0.573 0.853-1.373 0.76-2.187l-0.387-3.36c-0.076-0.65-0.388-1.25-0.877-1.686s-1.121-0.675-1.776-0.674h-2.307c-1.507 0-2.76 1.253-2.667 2.76 0.707 11.387 9.813 20.48 21.187 21.187 1.507 0.093 2.76-1.16 2.76-2.667v-2.307c0.013-1.347-1-2.48-2.347-2.64z"></path>
</symbol>
<symbol id="icon-bracket-left_11x10" viewBox="0 0 32 32">
<path fill="#fff" style="fill: var(--color1, #fff)" d="M23.619 4.003l-13.416 11.997 13.416 11.997-2.072 1.856-15.451-13.86 15.451-13.846 2.072 1.856z"></path>
</symbol>
<symbol id="icon-phone" viewBox="0 0 32 32">
<path fill="#008cef" style="fill: var(--color1, #008cef)" d="M25.64 20.347l-3.387-0.387c-0.398-0.047-0.802-0.003-1.181 0.129s-0.723 0.347-1.006 0.631l-2.453 2.453c-3.785-1.925-6.862-5.002-8.787-8.787l2.467-2.467c0.573-0.573 0.853-1.373 0.76-2.187l-0.387-3.36c-0.076-0.65-0.388-1.25-0.877-1.686s-1.121-0.675-1.776-0.674h-2.307c-1.507 0-2.76 1.253-2.667 2.76 0.707 11.387 9.813 20.48 21.187 21.187 1.507 0.093 2.76-1.16 2.76-2.667v-2.307c0.013-1.347-1-2.48-2.347-2.64z"></path>
</symbol>
<symbol id="icon-header-icon" viewBox="0 0 32 32">
<path fill="#008cef" style="fill: var(--color1, #008cef)" d="M25.64 20.347l-3.387-0.387c-0.398-0.047-0.802-0.003-1.181 0.129s-0.723 0.347-1.006 0.631l-2.453 2.453c-3.785-1.925-6.862-5.002-8.787-8.787l2.467-2.467c0.573-0.573 0.853-1.373 0.76-2.187l-0.387-3.36c-0.076-0.65-0.388-1.25-0.877-1.686s-1.121-0.675-1.776-0.674h-2.307c-1.507 0-2.76 1.253-2.667 2.76 0.707 11.387 9.813 20.48 21.187 21.187 1.506 0.093 2.76-1.16 2.76-2.666v-2.307c0.013-1.347-1-2.48-2.347-2.64z"></path>
</symbol>
<symbol id="icon-arrow-left" viewBox="0 0 20 32">
<path fill="#fff" style="fill: var(--color1, #fff)" d="M18.696 2.804l-13.416 13.196 13.416 13.196-2.072 2.042-15.451-15.246 15.451-15.23 2.072 2.042z"></path>
</symbol>
<symbol id="icon-arrow-right" viewBox="0 0 20 32">
<path fill="#fff" style="fill: var(--color1, #fff)" d="M0.996 29.196l13.416-13.196-13.416-13.196 2.072-2.042 15.451 15.246-15.451 15.23-2.072-2.042z"></path>
</symbol>
<symbol id="icon-youtube">
<path d="M15.172 19.437v3.297c0 .703-.203 1.047-.609 1.047-.234 0-.469-.109-.703-.344v-4.703c.234-.234.469-.344.703-.344.406 0 .609.359.609 1.047zm5.281.016v.719h-1.406v-.719c0-.703.234-1.062.703-1.062s.703.359.703 1.062zM5.359 16.047h1.672v-1.469H2.156v1.469h1.641v8.891H5.36v-8.891zm4.5 8.891h1.391v-7.719H9.859v5.906c-.313.438-.609.656-.891.656-.187 0-.297-.109-.328-.328-.016-.047-.016-.219-.016-.547v-5.688H7.233v6.109c0 .547.047.906.125 1.141.125.391.453.578.906.578.5 0 1.031-.313 1.594-.953v.844zm6.703-2.313v-3.078c0-.719-.031-1.234-.141-1.547-.172-.578-.562-.875-1.109-.875-.516 0-1 .281-1.453.844v-3.391h-1.391v10.359h1.391v-.75c.469.578.953.859 1.453.859.547 0 .938-.297 1.109-.859.109-.328.141-.844.141-1.563zm5.282-.156v-.203h-1.422c0 .562-.016.875-.031.953-.078.375-.281.562-.625.562-.484 0-.719-.359-.719-1.078v-1.359h2.797v-1.609c0-.828-.141-1.422-.422-1.813-.406-.531-.953-.797-1.656-.797-.719 0-1.266.266-1.672.797-.297.391-.438.984-.438 1.813v2.703c0 .828.156 1.437.453 1.813.406.531.953.797 1.687.797s1.313-.281 1.687-.828a1.8 1.8 0 0 0 .328-.844c.031-.141.031-.453.031-.906zm-9.5-14.266V4.922c0-.719-.203-1.078-.672-1.078-.453 0-.672.359-.672 1.078v3.281c0 .719.219 1.094.672 1.094.469 0 .672-.375.672-1.094zm11.234 11.735c0 1.797-.016 3.719-.406 5.469-.297 1.234-1.297 2.141-2.5 2.266-2.875.328-5.781.328-8.672.328s-5.797 0-8.672-.328c-1.203-.125-2.219-1.031-2.5-2.266-.406-1.75-.406-3.672-.406-5.469 0-1.813.016-3.719.406-5.469.297-1.234 1.297-2.141 2.516-2.281 2.859-.313 5.766-.313 8.656-.313s5.797 0 8.672.313c1.203.141 2.219 1.047 2.5 2.281.406 1.75.406 3.656.406 5.469zM7.984 0h1.594L7.687 6.234v4.234H6.124V6.234c-.141-.766-.453-1.859-.953-3.313-.344-.969-.688-1.953-1.016-2.922h1.656L6.92 4.108zm5.782 5.203v2.734c0 .828-.141 1.453-.438 1.844-.391.531-.938.797-1.656.797-.703 0-1.25-.266-1.641-.797-.297-.406-.438-1.016-.438-1.844V5.203c0-.828.141-1.437.438-1.828.391-.531.938-.797 1.641-.797.719 0 1.266.266 1.656.797.297.391.438 1 .438 1.828zM19 2.672v7.797h-1.422V9.61c-.562.656-1.094.969-1.609.969-.453 0-.781-.187-.922-.578-.078-.234-.125-.609-.125-1.172V2.673h1.422v5.734c0 .328 0 .516.016.547.031.219.141.344.328.344.281 0 .578-.219.891-.672V2.673h1.422z"/></symbol>
<symbol id="icon-facebook">
<path d="M22.672 2C23.406 2 24 2.594 24 3.328v21.344c0 .734-.594 1.328-1.328 1.328h-6.109v-9.297h3.109l.469-3.625h-3.578v-2.312c0-1.047.281-1.75 1.797-1.75L20.266 9V5.766c-.328-.047-1.469-.141-2.781-.141-2.766 0-4.672 1.687-4.672 4.781v2.672H9.688v3.625h3.125V26H1.329a1.327 1.327 0 0 1-1.328-1.328V3.328C.001 2.594.595 2 1.329 2h21.344z"/></symbol>
<symbol id="icon-instagram">
<path d="M16 14c0-2.203-1.797-4-4-4s-4 1.797-4 4 1.797 4 4 4 4-1.797 4-4zm2.156 0c0 3.406-2.75 6.156-6.156 6.156S5.844 17.406 5.844 14 8.594 7.844 12 7.844s6.156 2.75 6.156 6.156zm1.688-6.406c0 .797-.641 1.437-1.437 1.437S16.97 8.39 16.97 7.594s.641-1.437 1.437-1.437 1.437.641 1.437 1.437zM12 4.156c-1.75 0-5.5-.141-7.078.484-.547.219-.953.484-1.375.906s-.688.828-.906 1.375c-.625 1.578-.484 5.328-.484 7.078s-.141 5.5.484 7.078c.219.547.484.953.906 1.375s.828.688 1.375.906c1.578.625 5.328.484 7.078.484s5.5.141 7.078-.484c.547-.219.953-.484 1.375-.906s.688-.828.906-1.375c.625-1.578.484-5.328.484-7.078s.141-5.5-.484-7.078c-.219-.547-.484-.953-.906-1.375s-.828-.688-1.375-.906C17.5 4.015 13.75 4.156 12 4.156zM24 14c0 1.656.016 3.297-.078 4.953-.094 1.922-.531 3.625-1.937 5.031s-3.109 1.844-5.031 1.937c-1.656.094-3.297.078-4.953.078s-3.297.016-4.953-.078c-1.922-.094-3.625-.531-5.031-1.937S.173 20.875.08 18.953C-.014 17.297.002 15.656.002 14s-.016-3.297.078-4.953c.094-1.922.531-3.625 1.937-5.031s3.109-1.844 5.031-1.937c1.656-.094 3.297-.078 4.953-.078s3.297-.016 4.953.078c1.922.094 3.625.531 5.031 1.937s1.844 3.109 1.937 5.031C24.016 10.703 24 12.344 24 14z"/></symbol>
</defs>
</svg>
