<svg aria-hidden="true" style="position:absolute;width:0;height:0;overflow:hidden" xmlns="http://www.w3.org/2000/svg"><defs><symbol id="icon-ic_round-call"><path d="m25.64 20.347-3.387-.387a2.647 2.647 0 0 0-2.187.76l-2.453 2.453a20.062 20.062 0 0 1-8.787-8.787l2.467-2.467a2.656 2.656 0 0 0 .76-2.187l-.387-3.36c-.076-.65-.388-1.25-.877-1.686s-1.121-.675-1.776-.674H6.706c-1.507 0-2.76 1.253-2.667 2.76.707 11.387 9.813 20.48 21.187 21.187 1.506.093 2.76-1.16 2.76-2.666v-2.307c.013-1.347-1-2.48-2.347-2.64z"/></symbol><symbol id="icon-arrow-gallery_16x16"><path d="M16 2a.997.997 0 0 0-1 1v23.586l-6.292-6.294A1 1 0 0 0 6.999 21c0 .266.106.52.293.708l8 8a.991.991 0 0 0 .708.293 1.006 1.006 0 0 0 .708-.293l8-8a.991.991 0 0 0 .293-.708 1 1 0 0 0-1.709-.708L17 26.586V3a.997.997 0 0 0-1-1z"/></symbol><symbol id="icon-paper-clip_22x20" viewBox="0 0 35 32"><path d="M6.3 31.999c-1.489 0-2.811-.559-3.967-1.677C1.111 29.139.5 27.704.5 26.016s.611-3.124 1.833-4.306L21.5 2.033c.978-.968 2.106-1.591 3.383-1.871s2.572-.204 3.883.226 2.522 1.172 3.633 2.226c.356.366.683.769.983 1.21s.544.903.733 1.387a8.796 8.796 0 0 1 .583 3.145c-.044 2.28-.844 4.183-2.4 5.71l-14.5 14.903c-.2.215-.444.328-.733.339s-.539-.081-.75-.274a1 1 0 0 1-.333-.726c-.011-.29.083-.543.283-.758l14.5-14.903c1.178-1.161 1.778-2.602 1.8-4.323s-.544-3.129-1.7-4.226c-.711-.71-1.5-1.247-2.367-1.613s-1.8-.484-2.8-.355-1.889.57-2.667 1.323L3.864 23.13c-.822.796-1.233 1.753-1.233 2.871s.411 2.075 1.233 2.871c.378.366.789.64 1.233.823s.911.253 1.4.21c.978-.043 1.889-.484 2.733-1.323l15.233-15.677a4.621 4.621 0 0 0 .634-.758c.111-.161.2-.333.267-.516s.111-.366.133-.548c.022-.183-.011-.371-.1-.565s-.222-.376-.4-.548c-.422-.43-.833-.624-1.233-.581-.422.043-.9.312-1.433.806L10.864 22.001c-.133.129-.289.22-.467.274s-.361.059-.55.016a.997.997 0 0 1-.483-.258c-.222-.194-.333-.43-.333-.71s.1-.527.3-.742L20.798 8.742c.911-.86 1.833-1.333 2.767-1.419 1.067-.086 2.044.301 2.933 1.161.844.796 1.217 1.731 1.117 2.806s-.639 2.086-1.617 3.032l-15.233 15.71c-1.244 1.204-2.633 1.849-4.167 1.936-.044 0-.094.005-.15.016s-.106.016-.15.016z"/></symbol><symbol id="icon-arrow-left"><path d="M18.696 2.804 5.28 16l13.416 13.196-2.072 2.042L1.173 15.992 16.624.762l2.072 2.042z"/></symbol><symbol id="icon-arrow-right"><path d="M.996 29.196 14.412 16 .996 2.804 3.068.762l15.451 15.246-15.451 15.23-2.072-2.042z"/></symbol></defs></svg>
