<svg aria-hidden="true" style="position: absolute; width: 0; height: 0; overflow: hidden;" version="1.1" xmlns="http://www.w3.org/2000/svg" xmlns:xlink="http://www.w3.org/1999/xlink">
<defs>
<symbol id="icon-bracket-right_11x10" viewBox="0 0 35 32">
<path fill="#fff" style="fill: var(--color1, #fff)" d="M9.219 29.197l14.758-13.196-14.758-13.196 2.28-2.042 16.997 15.246-16.997 15.23-2.28-2.042z"></path>
</symbol>
<symbol id="icon-paper-clip_22x20" viewBox="0 0 35 32">
<path fill="#cdcdcd" style="fill: var(--color2, #cdcdcd)" d="M6.3 31.999c-1.489 0-2.811-0.559-3.967-1.677-1.222-1.183-1.833-2.618-1.833-4.306s0.611-3.124 1.833-4.306l19.167-19.677c0.978-0.968 2.106-1.591 3.383-1.871s2.572-0.204 3.883 0.226c1.311 0.43 2.522 1.172 3.633 2.226 0.356 0.366 0.683 0.769 0.983 1.21s0.544 0.903 0.733 1.387c0.189 0.484 0.333 0.995 0.433 1.532s0.15 1.075 0.15 1.613c-0.044 2.28-0.844 4.183-2.4 5.71l-14.5 14.903c-0.2 0.215-0.444 0.328-0.733 0.339s-0.539-0.081-0.75-0.274c-0.211-0.194-0.322-0.436-0.333-0.726s0.083-0.543 0.283-0.758l14.5-14.903c1.178-1.161 1.778-2.602 1.8-4.323s-0.544-3.129-1.7-4.226c-0.711-0.71-1.5-1.247-2.367-1.613s-1.8-0.484-2.8-0.355-1.889 0.57-2.667 1.323l-19.167 19.677c-0.822 0.796-1.233 1.753-1.233 2.871s0.411 2.075 1.233 2.871c0.378 0.366 0.789 0.64 1.233 0.823s0.911 0.253 1.4 0.21c0.978-0.043 1.889-0.484 2.733-1.323l15.233-15.677c0.111-0.108 0.217-0.22 0.317-0.339s0.206-0.258 0.317-0.419c0.111-0.161 0.2-0.333 0.267-0.516s0.111-0.366 0.133-0.548c0.022-0.183-0.011-0.371-0.1-0.565s-0.222-0.376-0.4-0.548c-0.422-0.43-0.833-0.624-1.233-0.581-0.422 0.043-0.9 0.312-1.433 0.806l-11.467 11.806c-0.133 0.129-0.289 0.22-0.467 0.274s-0.361 0.059-0.55 0.016c-0.189-0.043-0.35-0.129-0.483-0.258-0.222-0.194-0.333-0.43-0.333-0.71s0.1-0.527 0.3-0.742l11.467-11.839c0.911-0.86 1.833-1.333 2.767-1.419 1.067-0.086 2.044 0.301 2.933 1.161 0.844 0.796 1.217 1.731 1.117 2.806s-0.639 2.086-1.617 3.032l-15.233 15.71c-1.244 1.204-2.633 1.849-4.167 1.936-0.044 0-0.094 0.005-0.15 0.016s-0.106 0.016-0.15 0.016z"></path>
</symbol>
<symbol id="icon-for-youtube_29x29" viewBox="0 0 32 32">
<path fill="#487996" style="fill: var(--color3, #487996)" d="M28.69 15.044c0.736 0.425 0.736 1.486 0 1.911l-24 13.856c-0.736 0.425-1.655-0.106-1.655-0.956v-27.713c0-0.849 0.92-1.38 1.655-0.956l24 13.856z"></path>
</symbol>
<symbol id="icon-arrow-gallery_16x16" viewBox="0 0 32 32">
<path fill="#008cef" style="fill: var(--color4, #008cef)" d="M16 2c-0.265 0-0.52 0.105-0.707 0.293s-0.293 0.442-0.293 0.707v23.586l-6.292-6.294c-0.188-0.188-0.442-0.293-0.708-0.293s-0.52 0.105-0.708 0.293c-0.188 0.188-0.293 0.442-0.293 0.708s0.106 0.52 0.293 0.708l8 8c0.093 0.093 0.203 0.167 0.325 0.217s0.252 0.076 0.383 0.076c0.131 0 0.262-0.026 0.383-0.076s0.232-0.124 0.325-0.217l8-8c0.093-0.093 0.167-0.203 0.217-0.325s0.076-0.252 0.076-0.383c0-0.266-0.105-0.52-0.293-0.708s-0.442-0.293-0.708-0.293c-0.265 0-0.52 0.105-0.708 0.293l-6.292 6.294v-23.586c0-0.265-0.105-0.52-0.293-0.707s-0.442-0.293-0.707-0.293z"></path>
</symbol>
<symbol id="icon-close-btn_45x45" viewBox="0 0 32 32">
<path fill="#487996" style="fill: var(--color3, #487996)" d="M17.253 16l6.48-6.48c0.146-0.17 0.222-0.389 0.213-0.612s-0.101-0.436-0.26-0.594c-0.158-0.158-0.37-0.251-0.594-0.26s-0.442 0.068-0.612 0.213l-6.48 6.48-6.48-6.489c-0.17-0.146-0.389-0.222-0.612-0.213s-0.436 0.101-0.594 0.26c-0.158 0.158-0.251 0.371-0.26 0.594s0.068 0.442 0.213 0.612l6.48 6.489-6.489 6.48c-0.093 0.080-0.169 0.178-0.222 0.288s-0.083 0.23-0.088 0.353c-0.005 0.122 0.016 0.244 0.061 0.359s0.113 0.218 0.199 0.304 0.19 0.154 0.304 0.199c0.114 0.045 0.236 0.065 0.359 0.061s0.243-0.035 0.353-0.088c0.11-0.053 0.208-0.129 0.288-0.222l6.489-6.48 6.48 6.48c0.17 0.146 0.389 0.222 0.612 0.213s0.436-0.101 0.594-0.26c0.158-0.158 0.251-0.37 0.26-0.594s-0.067-0.442-0.213-0.612l-6.48-6.48z"></path>
</symbol>
<symbol id="icon-item-list-style_7x7" viewBox="0 0 32 32">
<path fill="#487996" style="fill: var(--color3, #487996)" d="M0 13.714c0-7.574 6.14-13.714 13.714-13.714h18.286v18.286c0 7.574-6.14 13.714-13.714 13.714h-18.286v-18.286z"></path>
</symbol>
<symbol id="icon-form-polygon_19x13" viewBox="0 0 32 32">
<path d="M17.63 24.734c-0.852 1.010-2.409 1.010-3.261 0l-12.96-15.359c-1.17-1.387-0.184-3.509 1.63-3.509h25.92c1.815 0 2.801 2.122 1.63 3.509l-12.96 15.359z"></path>
</symbol>
<symbol id="icon-burger-menu_32x32" viewBox="0 0 32 32">
<path fill="#487996" style="fill: var(--color3, #487996)" d="M32 9c0 0.552-0.448 1-1 1h-30c-0.552 0-1-0.448-1-1s0.448-1 1-1h30c0.552 0 1 0.448 1 1zM32 25c0 0.552-0.448 1-1 1h-30c-0.552 0-1-0.448-1-1s0.448-1 1-1h30c0.552 0 1 0.448 1 1zM32 16.992c0 0.548-0.444 0.992-0.992 0.992h-30.016c-0.548 0-0.992-0.444-0.992-0.992s0.444-0.992 0.992-0.992h30.016c0.548 0 0.992 0.444 0.992 0.992z"></path>
</symbol>
<symbol id="icon-phone_24x24" viewBox="0 0 32 32">
<path fill="#008cef" style="fill: var(--color4, #008cef)" d="M25.64 20.347l-3.387-0.387c-0.398-0.047-0.802-0.003-1.181 0.129s-0.723 0.347-1.006 0.631l-2.453 2.453c-3.785-1.925-6.862-5.002-8.787-8.787l2.467-2.467c0.573-0.573 0.853-1.373 0.76-2.187l-0.387-3.36c-0.076-0.65-0.388-1.25-0.877-1.686s-1.121-0.675-1.776-0.674h-2.307c-1.507 0-2.76 1.253-2.667 2.76 0.707 11.387 9.813 20.48 21.187 21.187 1.507 0.093 2.76-1.16 2.76-2.667v-2.307c0.013-1.347-1-2.48-2.347-2.64z"></path>
</symbol>
<symbol id="icon-bracket-left_11x10" viewBox="0 0 32 32">
<path fill="#fff" style="fill: var(--color1, #fff)" d="M23.619 4.003l-13.416 11.997 13.416 11.997-2.072 1.856-15.451-13.86 15.451-13.846 2.072 1.856z"></path>
</symbol>
<symbol id="icon-loader-icon_45x45" viewBox="0 0 32 32">
<path fill="none" stroke="#487996" style="stroke: var(--color3, #487996)" stroke-linejoin="round" stroke-linecap="round" stroke-miterlimit="4" stroke-width="0.7111" d="M16 5.333v3.048"></path>
<path fill="none" stroke="#487996" style="stroke: var(--color3, #487996)" stroke-linejoin="round" stroke-linecap="round" stroke-miterlimit="4" stroke-width="0.7111" d="M23.619 8.381l-2.286 2.286"></path>
<path fill="none" stroke="#487996" style="stroke: var(--color3, #487996)" stroke-linejoin="round" stroke-linecap="round" stroke-miterlimit="4" stroke-width="0.7111" d="M8.381 8.381l2.286 2.286"></path>
<path fill="none" stroke="#487996" style="stroke: var(--color3, #487996)" stroke-linejoin="round" stroke-linecap="round" stroke-miterlimit="4" stroke-width="0.7111" d="M16 26.666v-3.048"></path>
<path fill="none" stroke="#487996" style="stroke: var(--color3, #487996)" stroke-linejoin="round" stroke-linecap="round" stroke-miterlimit="4" stroke-width="0.7111" d="M23.619 23.619l-2.286-2.286"></path>
<path fill="none" stroke="#487996" style="stroke: var(--color3, #487996)" stroke-linejoin="round" stroke-linecap="round" stroke-miterlimit="4" stroke-width="0.7111" d="M8.381 23.619l2.286-2.286"></path>
<path fill="none" stroke="#487996" style="stroke: var(--color3, #487996)" stroke-linejoin="round" stroke-linecap="round" stroke-miterlimit="4" stroke-width="0.7111" d="M5.333 16h3.048"></path>
<path fill="none" stroke="#487996" style="stroke: var(--color3, #487996)" stroke-linejoin="round" stroke-linecap="round" stroke-miterlimit="4" stroke-width="0.7111" d="M23.619 16h3.048"></path>
</symbol>
</defs>
</svg>
